<svg width="370" height="167" viewBox="0 0 370 167" fill="none" xmlns="http://www.w3.org/2000/svg">
<path d="M184.5 0L185.39 32.2478C186.15 59.7412 208.259 81.8504 235.752 82.6096L268 83.5L235.752 84.3904C208.259 85.1496 186.15 107.259 185.39 134.752L184.5 167L183.61 134.752C182.85 107.259 160.741 85.1496 133.248 84.3904L101 83.5L133.248 82.6096C160.741 81.8504 182.85 59.7412 183.61 32.2478L184.5 0Z" fill="#252525"/>
<path d="M369.5 83.5C369.5 91.6303 364.462 99.4588 355.156 106.654C345.857 113.843 332.37 120.34 315.659 125.805C282.243 136.733 236.048 143.5 185 143.5C133.952 143.5 87.7566 136.733 54.3407 125.805C37.63 120.34 24.143 113.843 14.8441 106.654C5.53839 99.4588 0.5 91.6303 0.5 83.5C0.5 75.3697 5.53839 67.5412 14.8441 60.3462C24.143 53.1565 37.63 46.6601 54.3407 41.1953C87.7566 30.2674 133.952 23.5 185 23.5C236.048 23.5 282.243 30.2674 315.659 41.1953C332.37 46.6601 345.857 53.1565 355.156 60.3462C364.462 67.5412 369.5 75.3697 369.5 83.5Z" stroke="#252525"/>
</svg>
