<svg width="882" height="882" viewBox="0 0 882 882" fill="none" xmlns="http://www.w3.org/2000/svg">
<rect width="881.8" height="881.8" fill="#F9C4C2"/>
<path d="M242.282 487.173C238.821 471.691 237 456.027 237 440.362C237 328.071 327.889 237 440.18 237C455.298 237 470.507 238.821 485.079 242.009C372.696 284.813 284.266 374.518 242.282 487.173ZM600.102 314.866C587.625 298.929 573.054 285.086 556.57 273.611C420.327 313.955 314.046 421.238 274.521 557.754C285.905 574.238 300.021 590.175 315.686 602.379C354.938 464.588 462.493 354.938 600.102 314.866ZM614.491 545.004C628.334 522.145 637.623 496.098 641.357 469.596C569.046 508.666 509.304 570.321 470.507 642.905C497.829 638.898 524.148 628.971 547.554 614.4C579.429 626.33 612.123 636.53 645 645C636.53 611.759 626.421 577.152 614.491 545.004ZM641.539 412.495C639.171 394.736 634.345 377.25 627.15 360.766C501.562 402.477 402.75 503.384 361.859 629.518C378.343 636.439 395.555 640.902 413.405 643.361C455.571 539.448 537.991 455.025 641.539 412.495Z" fill="#252525"/>
</svg>
